<svg height="512pt" viewBox="0 -156 512 512" width="512pt" xmlns="http://www.w3.org/2000/svg"><path d="m220 4.007812c71.113281 0 143.359375 49.59375 152.390625 56-9.917969 0-93.832031 0-152.390625 0v-8l-8-40-.078125-7.917968c2.636719-.082032 5.359375-.082032 8.078125-.082032zm0 0" fill="#5d9cec"/><path d="m220 52.007812v8c-28.480469 0-50.953125 0-56 0-40 0-56-32-56-32v-10.480468c15.128906-4.230469 51.199219-12.640625 103.921875-13.4375l.078125 7.917968zm0 0" fill="#5d9cec"/><path d="m250.617188 60.007812h16.566406l12.3125-46c-5.046875-1.574218-10.183594-3.015624-15.425782-4.277343zm0 0" fill="#87bcf4"/><path d="m271.328125 60.007812h4.144531l11.65625-43.542968c-1.25-.441406-2.511718-.855469-3.800781-1.28125zm0 0" fill="#87bcf4"/><path d="m167.03125 6.761719-14.023438 52.3125c3.464844.558593 7.089844.933593 10.992188.933593h5.328125l14.664063-54.742187c-5.945313.414063-11.601563.925781-16.960938 1.496094zm0 0" fill="#87bcf4"/><path d="m173.472656 60.007812h4.144532l14.808593-55.253906c-1.433593.078125-2.808593.167969-4.210937.253906zm0 0" fill="#87bcf4"/><path d="m372.390625 64.007812h-208.390625c-55.742188 0-59.953125-45.710937-59.984375-46.167968-.167969-2.199219 1.464844-4.109375 3.664063-4.296875 2.3125-.199219 4.128906 1.472656 4.304687 3.65625.136719 1.59375 3.824219 38.816406 52.015625 38.816406h208.390625c2.210937 0 4 1.792969 4 4s-1.789063 3.992187-4 3.992187zm0 0" fill="#ffce54"/><path d="m511.328125 105.792969-16-24c-.59375-.886719-1.503906-1.503907-2.550781-1.703125l-117.800782-23.160156c-8.5625-6.136719-81.609374-56.9218755-154.976562-56.9218755-69.464844 0-111.96875 13.0742185-120.023438 15.7851565l-22.710937-7.578125c-.203125-.0625-.417969-.039063-.617187-.070313-.214844-.039062-.425782-.136719-.648438-.136719-.054688 0-.105469.03125-.160156.03125-.273438.015626-.519532.097657-.792969.160157-.246094.066406-.503906.097656-.734375.203125-.191406.09375-.359375.246094-.542969.375-.234375.167968-.488281.3125-.679687.519531-.152344.160156-.242188.351563-.363282.535156-.167968.257813-.335937.496094-.445312.777344-.015625.054687-.066406.09375-.082031.144531-.070313.214844-.046875.4375-.078125.65625-.023438.199219-.121094.382813-.121094.597656v13.34375c-38.761719 16.089844-61.847656 38.839844-62.832031 39.832032-.742188.753906-1.167969 1.769531-1.167969 2.824218v23.058594l-7.574219 15.15625c-.273437.554688-.425781 1.160156-.425781 1.792969v40c0 1.089844.496094 6.730469 10.207031 11.578125 8.417969 4.199219 45.226563 7.984375 49.402344 8.398438.132813.015624.269531.023437.40625.023437 2.023437 0 3.769531-1.535156 3.96875-3.597656.222656-2.195313-1.382813-4.160157-3.578125-4.378907-.054688-.007812-.125-.015624-.175781-.015624-.140625-1.320313-.230469-2.648438-.230469-4.007813 0-22.078125 17.921875-40 40-40s40 17.921875 40 40c0 2.320313-.160156 4.5625-.640625 6.800781l8.640625 1.199219h208l8.640625-1.199219c-.488281-2.230468-.640625-4.480468-.640625-6.800781 0-22.078125 17.921875-40 40-40s40 17.921875 40 40c0 1.359375-.089844 2.6875-.222656 4.007813-2.191406.121093-3.882813 1.992187-3.777344 4.191406.105469 2.136718 1.871094 3.800781 3.992188 3.800781.0625 0 .136718 0 .199218-.007813 1.96875-.09375 48.394532-2.429687 56.59375-4.070312 8.871094-1.769531 11.214844-8.578125 11.214844-11.921875v-44c0-.792969-.230469-1.566406-.671875-2.222656zm-291.328125-45.785157c-28.480469 0-50.953125 0-56 0-40 0-56-32-56-32v-6.296874c14.808594-4.261719 54.128906-13.703126 112-13.703126 62.351562 0 126.433594 39.425782 145.289062 52-23.601562 0-94.121093 0-145.289062 0zm0 0" fill="#ffce54"/><path d="m219.992188 64.007812c-1.953126 0-3.664063-1.4375-3.953126-3.429687l-8-56.007813c-.3125-2.1875 1.207032-4.21875 3.402344-4.5312495 2.125-.3085935 4.199219 1.2109375 4.519532 3.4023435l8 56.007813c.3125 2.183593-1.207032 4.214843-3.402344 4.527343-.183594.03125-.382813.03125-.566406.03125zm0 0" fill="#ffce54"/><path d="m76.648438 8.144531c-.214844-.039062-.425782-.136719-.648438-.136719-.054688 0-.105469.03125-.160156.03125-.273438.015626-.519532.097657-.792969.160157-.246094.066406-.503906.097656-.734375.203125-.191406.09375-.359375.246094-.542969.375-.234375.167968-.488281.3125-.679687.519531-.152344.160156-.242188.351563-.363282.535156-.167968.257813-.335937.496094-.445312.777344-.015625.054687-.066406.09375-.082031.144531-.070313.214844-.046875.4375-.078125.65625-.023438.199219-.121094.382813-.121094.597656v13.34375l27.976562-9.558593-22.710937-7.578125c-.203125-.0625-.417969-.039063-.617187-.070313zm0 0" fill="#f6bb42"/><path d="m404 196.015625c-19.769531 0-36.160156-14.320313-39.359375-33.199219-.488281-2.230468-.640625-4.480468-.640625-6.800781 0-22.078125 17.921875-40 40-40s40 17.921875 40 40c0 2.320313-.160156 4.5625-.640625 6.800781-3.199219 18.878906-19.605469 33.199219-39.359375 33.199219zm0 0" fill="#ccd1d9"/><path d="m100 196.015625c-19.761719 0-36.160156-14.320313-39.359375-33.199219-.480469-2.230468-.640625-4.480468-.640625-6.800781 0-22.078125 17.921875-40 40-40s40 17.921875 40 40c0 2.320313-.160156 4.5625-.640625 6.800781-3.191406 18.878906-19.589844 33.199219-39.359375 33.199219zm0 0" fill="#ccd1d9"/><path d="m364.007812 168.015625h-224.015624c-2.207032 0-4-1.792969-4-4s1.792968-4 4-4h224.015624c2.207032 0 4 1.792969 4 4s-1.792968 4-4 4zm0 0" fill="#ffce54"/><path d="m260 88.007812h-16c-2.207031 0-4-1.792968-4-4 0-2.207031 1.792969-4 4-4h16c2.207031 0 4 1.792969 4 4 0 2.207032-1.792969 4-4 4zm0 0" fill="#f6bb42"/><path d="m172 88.007812h-16c-2.207031 0-4-1.792968-4-4 0-2.207031 1.792969-4 4-4h16c2.207031 0 4 1.792969 4 4 0 2.207032-1.792969 4-4 4zm0 0" fill="#f6bb42"/><path d="m28 120.015625h-28v8h28c2.207031 0 4-1.792969 4-4s-1.792969-4-4-4zm0 0" fill="#f6bb42"/><path d="m8 68.007812v23.058594l37.480469-11.335937c1.648437-.664063 2.664062-2.320313 2.503906-4.089844-.167969-1.761719-1.464844-3.207031-3.199219-3.550781l-35.425781-7.089844c-.054687.054688-.160156.160156-.175781.175781-.757813.761719-1.183594 1.777344-1.183594 2.832031zm0 0" fill="#ed5565"/><path d="m512 108.015625c0-.792969-.230469-1.566406-.671875-2.222656l-11.847656-17.785157h-39.464844c-1.847656 0-3.472656 1.28125-3.886719 3.082032-.433594 1.816406.445313 3.671875 2.101563 4.503906l16 8c.363281.175781.738281.292969 1.136719.367188l36.632812 6.113281zm0 0" fill="#e6e9ed"/><path d="m404.238281 160.015625c-2.207031 0-4.039062-1.792969-4.039062-4s1.753906-4 3.953125-4h.085937c2.203125 0 4 1.792969 4 4s-1.789062 4-4 4zm0 0" fill="#aab2bd"/><path d="m404 200.015625c-24.257812 0-44-19.742187-44-44 0-24.253906 19.742188-44 44-44s44 19.746094 44 44c0 24.257813-19.742188 44-44 44zm0-80c-19.847656 0-36 16.152344-36 36s16.152344 36 36 36 36-16.152344 36-36-16.152344-36-36-36zm0 0" fill="#656d78"/><g fill="#aab2bd"><path d="m404 144.015625c-2.207031 0-4-1.792969-4-4v-8c0-2.207031 1.792969-4 4-4s4 1.792969 4 4v8c0 2.207031-1.792969 4-4 4zm0 0"/><path d="m404 184.015625c-2.207031 0-4-1.792969-4-4v-8c0-2.207031 1.792969-4 4-4s4 1.792969 4 4v8c0 2.207031-1.792969 4-4 4zm0 0"/><path d="m388 160.015625h-8c-2.207031 0-4-1.792969-4-4s1.792969-4 4-4h8c2.207031 0 4 1.792969 4 4s-1.792969 4-4 4zm0 0"/><path d="m428 160.015625h-8c-2.207031 0-4-1.792969-4-4s1.792969-4 4-4h8c2.207031 0 4 1.792969 4 4s-1.792969 4-4 4zm0 0"/><path d="m392.6875 148.703125c-1.023438 0-2.046875-.390625-2.832031-1.167969l-5.65625-5.65625c-1.558594-1.558594-1.558594-4.09375 0-5.65625 1.5625-1.558594 4.097656-1.558594 5.65625 0l5.65625 5.65625c1.558593 1.5625 1.558593 4.097656 0 5.65625-.777344.777344-1.800781 1.167969-2.824219 1.167969zm0 0"/><path d="m420.96875 176.984375c-1.023438 0-2.046875-.390625-2.832031-1.167969l-5.65625-5.65625c-1.558594-1.558594-1.558594-4.09375 0-5.65625 1.558593-1.558594 4.09375-1.558594 5.65625 0l5.65625 5.65625c1.558593 1.558594 1.558593 4.097656 0 5.65625-.777344.777344-1.800781 1.167969-2.824219 1.167969zm0 0"/><path d="m387.03125 176.984375c-1.023438 0-2.046875-.390625-2.832031-1.167969-1.558594-1.558594-1.558594-4.097656 0-5.65625l5.65625-5.65625c1.558593-1.558594 4.097656-1.558594 5.65625 0 1.558593 1.5625 1.558593 4.097656 0 5.65625l-5.65625 5.65625c-.777344.777344-1.800781 1.167969-2.824219 1.167969zm0 0"/><path d="m415.3125 148.703125c-1.023438 0-2.046875-.390625-2.832031-1.167969-1.558594-1.558594-1.558594-4.09375 0-5.65625l5.65625-5.65625c1.558593-1.558594 4.09375-1.558594 5.65625 0 1.558593 1.5625 1.558593 4.097656 0 5.65625l-5.65625 5.65625c-.777344.777344-1.800781 1.167969-2.824219 1.167969zm0 0"/><path d="m100.238281 160.015625c-2.207031 0-4.039062-1.792969-4.039062-4s1.753906-4 3.953125-4h.085937c2.203125 0 4 1.792969 4 4s-1.789062 4-4 4zm0 0"/></g><path d="m100 200.015625c-24.257812 0-43.992188-19.742187-43.992188-44 0-24.253906 19.734376-44 43.992188-44s44 19.746094 44 44c0 24.257813-19.742188 44-44 44zm0-80c-19.839844 0-35.992188 16.152344-35.992188 36s16.152344 36 35.992188 36c19.847656 0 36-16.152344 36-36s-16.152344-36-36-36zm0 0" fill="#656d78"/><path d="m100 144.015625c-2.207031 0-4-1.792969-4-4v-8c0-2.207031 1.792969-4 4-4s4 1.792969 4 4v8c0 2.207031-1.792969 4-4 4zm0 0" fill="#aab2bd"/><path d="m100 184.015625c-2.207031 0-4-1.792969-4-4v-8c0-2.207031 1.792969-4 4-4s4 1.792969 4 4v8c0 2.207031-1.792969 4-4 4zm0 0" fill="#aab2bd"/><path d="m84 160.015625h-7.992188c-2.207031 0-4-1.792969-4-4s1.792969-4 4-4h7.992188c2.207031 0 4 1.792969 4 4s-1.792969 4-4 4zm0 0" fill="#aab2bd"/><path d="m124 160.015625h-8c-2.207031 0-4-1.792969-4-4s1.792969-4 4-4h8c2.207031 0 4 1.792969 4 4s-1.792969 4-4 4zm0 0" fill="#aab2bd"/><path d="m88.6875 148.703125c-1.023438 0-2.046875-.390625-2.832031-1.167969l-5.65625-5.65625c-1.558594-1.558594-1.558594-4.09375 0-5.65625 1.5625-1.558594 4.097656-1.558594 5.65625 0l5.65625 5.65625c1.558593 1.5625 1.558593 4.097656 0 5.65625-.777344.777344-1.800781 1.167969-2.824219 1.167969zm0 0" fill="#aab2bd"/><path d="m116.96875 176.984375c-1.023438 0-2.046875-.390625-2.832031-1.167969l-5.65625-5.65625c-1.558594-1.558594-1.558594-4.09375 0-5.65625 1.558593-1.558594 4.09375-1.558594 5.65625 0l5.65625 5.65625c1.558593 1.558594 1.558593 4.097656 0 5.65625-.777344.777344-1.800781 1.167969-2.824219 1.167969zm0 0" fill="#aab2bd"/><path d="m83.03125 176.984375c-1.023438 0-2.046875-.390625-2.832031-1.167969-1.558594-1.558594-1.558594-4.097656 0-5.65625l5.65625-5.65625c1.558593-1.558594 4.097656-1.558594 5.65625 0 1.558593 1.5625 1.558593 4.097656 0 5.65625l-5.65625 5.65625c-.777344.777344-1.800781 1.167969-2.824219 1.167969zm0 0" fill="#aab2bd"/><path d="m111.3125 148.703125c-1.023438 0-2.046875-.390625-2.832031-1.167969-1.558594-1.558594-1.558594-4.09375 0-5.65625l5.65625-5.65625c1.558593-1.558594 4.09375-1.558594 5.65625 0 1.558593 1.5625 1.558593 4.097656 0 5.65625l-5.65625 5.65625c-.777344.777344-1.800781 1.167969-2.824219 1.167969zm0 0" fill="#aab2bd"/></svg>