<?xml version="1.0" encoding="iso-8859-1"?>
<!-- Generator: Adobe Illustrator 22.1.0, SVG Export Plug-In . SVG Version: 6.00 Build 0)  -->
<svg xmlns="http://www.w3.org/2000/svg" xmlns:xlink="http://www.w3.org/1999/xlink" version="1.1" id="Layer_3" x="0px" y="0px" viewBox="0 0 64 64" style="enable-background:new 0 0 64 64;" xml:space="preserve" width="512" height="512">
<g>
	<rect x="8" y="30" style="fill:#80322A;" width="5" height="6"/>
	<rect x="51" y="30" style="fill:#80322A;" width="5" height="6"/>
	<rect x="12" y="54" style="fill:#565656;" width="40" height="4"/>
	<rect x="24" y="54" style="fill:#62380F;" width="16" height="4"/>
	<rect x="24" y="54" style="fill:#834A14;" width="13" height="4"/>
	<path style="fill:#737373;" d="M10,62H6c-1.105,0-2-0.895-2-2v-6h8v6C12,61.105,11.105,62,10,62z"/>
	<path style="fill:#999999;" d="M9,60v-6H4v6c0,1.105,0.895,2,2,2h1C8.105,62,9,61.105,9,60z"/>
	<path style="fill:#737373;" d="M58,62h-4c-1.105,0-2-0.895-2-2v-6h8v6C60,61.105,59.105,62,58,62z"/>
	<path style="fill:#999999;" d="M57,60v-6h-5v6c0,1.105,0.895,2,2,2h1C56.105,62,57,61.105,57,60z"/>
	<path style="fill:#AA4238;" d="M54,40L54,40c4.418,0,8,3.582,8,8v4c0,1.105-0.895,2-2,2H4c-1.105,0-2-0.895-2-2v-4   c0-4.418,3.582-8,8-8h0h0l3.432-13.728C13.766,24.937,14.966,24,16.342,24h31.315c1.377,0,2.577,0.937,2.91,2.272L54,40z"/>
	<path style="fill:#E3584B;" d="M59,52v-4c0-4.418-3.582-8-8-8l-3.432-13.728C47.234,24.937,46.034,24,44.658,24H16.342   c-1.377,0-2.577,0.937-2.91,2.272L10,40c-4.418,0-8,3.582-8,8v4c0,1.105,0.895,2,2,2h53C58.105,54,59,53.105,59,52z"/>
	<rect x="8" y="46" style="fill:#FFC24F;" width="6" height="4"/>
	<rect x="8" y="46" style="fill:#FFCE72;" width="3" height="4"/>
	<rect x="50" y="46" style="fill:#FFC24F;" width="6" height="4"/>
	<rect x="50" y="46" style="fill:#FFCE72;" width="3" height="4"/>
	<polygon style="fill:#69ADDA;" points="14,40 50,40 47,28 17,28  "/>
	<polygon style="fill:#8EC1E3;" points="17,28 14,40 46,40 43,28  "/>
	<path style="fill:#B3B3B3;" d="M42,54H22v-6c0-5.523,4.477-10,10-10h0c5.523,0,10,4.477,10,10V54z"/>
	<rect x="29" y="18" style="fill:#6B6D6E;" width="6" height="6"/>
	<rect x="29" y="18" style="fill:#A1A3A4;" width="3" height="6"/>
	<path style="fill:#BF923B;" d="M49,18H15c-1.105,0-2-0.895-2-2V4c0-1.105,0.895-2,2-2h34c1.105,0,2,0.895,2,2v12   C51,17.105,50.105,18,49,18z"/>
	<path style="fill:#FFC24F;" d="M48,16V4c0-1.105-0.895-2-2-2H15c-1.105,0-2,0.895-2,2v12c0,1.105,0.895,2,2,2h31   C47.105,18,48,17.105,48,16z"/>
	<path style="fill:#565656;" d="M25,40.864V54h2V39.349C26.271,39.771,25.598,40.278,25,40.864z"/>
	<path style="fill:#565656;" d="M29,38.459V54h2V38.05C30.31,38.119,29.641,38.258,29,38.459z"/>
	<path style="fill:#565656;" d="M33,38.05V54h2V38.459C34.359,38.258,33.69,38.119,33,38.05z"/>
	<path style="fill:#565656;" d="M37,39.349V54h2V40.864C38.402,40.278,37.729,39.771,37,39.349z"/>
	<g>
		
			<rect x="18.757" y="33" transform="matrix(0.7071 -0.7071 0.7071 0.7071 -17.3051 26.2218)" style="fill:#4F82A3;" width="8.485" height="2"/>
	</g>
	<g>
		
			<rect x="36.757" y="33" transform="matrix(0.7071 -0.7071 0.7071 0.7071 -12.033 38.9497)" style="fill:#4F82A3;" width="8.485" height="2"/>
	</g>
	<g>
		<path style="fill:#60491E;" d="M23,8c0-1.654-1.346-3-3-3h-3c-0.552,0-1,0.448-1,1v9h2v-3.858c1.72,0.447,3,2,3,3.858h2    c0-1.666-0.684-3.175-1.784-4.263C22.265,10.269,23,9.221,23,8z M18,7h2c0.551,0,1,0.449,1,1s-0.449,1-1,1h-2V7z"/>
		<path style="fill:#60491E;" d="M25,6v8c0,0.552,0.448,1,1,1h5v-2h-4v-2h4V9h-4V7h4V5h-5C25.448,5,25,5.448,25,6z"/>
		<path style="fill:#60491E;" d="M38,10.513L34.848,5.47c-0.236-0.379-0.696-0.553-1.124-0.432C33.295,5.162,33,5.554,33,6v9h2    V9.487l3.152,5.043C38.338,14.828,38.662,15,39,15c0.092,0,0.185-0.013,0.276-0.039C39.705,14.838,40,14.446,40,14V5h-2V10.513z"/>
		<polygon style="fill:#60491E;" points="48,5 42,5 42,7 44,7 44,15 46,15 46,7 48,7   "/>
	</g>
</g>
</svg>
